<?xml version="1.0" encoding="UTF-8"?>
<svg version="1.1" xmlns="http://www.w3.org/2000/svg" width="631" height="136">
<path d="M0 0 C208.23 0 416.46 0 631 0 C631 44.88 631 89.76 631 136 C422.77 136 214.54 136 0 136 C0 91.12 0 46.24 0 0 Z " fill="#161516" transform="translate(0,0)"/>
<path d="M0 0 C1.16519417 -0.00642769 1.16519417 -0.00642769 2.35392761 -0.01298523 C3.99546333 -0.01871914 5.63702446 -0.0192357 7.27856445 -0.01489258 C9.77404865 -0.01174263 12.268335 -0.03516723 14.76367188 -0.06054688 C16.36327977 -0.06282117 17.96289082 -0.06352276 19.5625 -0.0625 C20.30127884 -0.07170975 21.04005768 -0.08091949 21.80122375 -0.09040833 C27.57851705 -0.03953152 32.58539088 0.99350665 36.8984375 5.1484375 C42.16089607 15.61636051 36.00750075 34.6921552 32.98046875 45.30078125 C31.58217187 49.14007054 30.14830871 52.35517183 26.89819336 54.98681641 C22.9192128 56.77870607 19.48796006 56.73163919 15.171875 56.69921875 C14.32753403 56.70208893 13.48319305 56.70495911 12.61326599 56.70791626 C10.83225837 56.70995248 9.05122817 56.70445354 7.27026367 56.69189453 C4.55531364 56.67585419 1.84185669 56.69174742 -0.87304688 56.7109375 C-2.60807618 56.7089546 -4.34310456 56.70510995 -6.078125 56.69921875 C-6.88454941 56.70529144 -7.69097382 56.71136414 -8.52183533 56.71762085 C-13.41465831 56.65707672 -16.77382171 55.99014922 -21.01953125 53.30078125 C-24.81862378 48.59526623 -24.13577603 44.9182178 -23.53515625 39.1796875 C-19.64670895 9.92795895 -19.64670895 9.92795895 -12.01953125 2.30078125 C-8.30427423 -0.25533745 -4.34541274 -0.00531709 0 0 Z " fill="#F90000" transform="translate(232.01953125,61.69921875)"/>
<path d="M0 0 C2.18796568 -0.00972321 4.37499751 -0.04080494 6.56274414 -0.07226562 C7.97094176 -0.07879577 9.37914601 -0.0840462 10.78735352 -0.08789062 C12.05313232 -0.09723633 13.31891113 -0.10658203 14.62304688 -0.11621094 C20.08506396 0.4191012 23.96449052 1.77862291 27.69750977 5.99023438 C30.52788782 11.87742073 29.16608871 17.94103109 28.01000977 24.17773438 C27.87578613 24.90702148 27.7415625 25.63630859 27.60327148 26.38769531 C27.17085897 28.67520181 26.72002983 30.95812636 26.26000977 33.24023438 C26.11015625 33.98740723 25.96030273 34.73458008 25.8059082 35.50439453 C25.35747102 37.67279303 24.87787781 39.83154289 24.38500977 41.99023438 C24.09883789 43.26382813 23.81266602 44.53742188 23.51782227 45.84960938 C21.81804748 50.43161096 19.46341144 53.09132137 15.11791992 55.35717773 C11.35638078 56.51944384 7.75249905 56.54564335 3.85375977 56.54101562 C3.05143921 56.54530075 2.24911865 56.54958588 1.42248535 56.55400085 C-0.26854511 56.55972658 -1.9596002 56.56025741 -3.65063477 56.5559082 C-6.2316293 56.55274462 -8.81148067 56.57624073 -11.39233398 56.6015625 C-13.03946796 56.60383539 -14.68660501 56.60453904 -16.33374023 56.60351562 C-17.10157837 56.61272537 -17.8694165 56.62193512 -18.66052246 56.63142395 C-23.21494469 56.5922545 -26.10096484 56.01943621 -29.73999023 53.24023438 C-32.65416929 50.21127365 -33.17185793 48.09001088 -33.17749023 43.92773438 C-33.02027875 37.3398246 -32.06445418 30.92356856 -30.98999023 24.42773438 C-30.83328857 23.44957764 -30.67658691 22.4714209 -30.51513672 21.46362305 C-29.25206436 14.35422629 -27.53951832 8.11343425 -22.36499023 2.80273438 C-15.83899532 -1.08178641 -7.37941325 0.01983935 0 0 Z " fill="#FA0000" transform="translate(122.739990234375,61.759765625)"/>
<path d="M0 0 C6.1563653 -0.09908722 12.3122635 -0.17157253 18.46923828 -0.21972656 C20.56241953 -0.23980659 22.65554492 -0.2670764 24.74853516 -0.30175781 C27.76218469 -0.35043434 30.77509073 -0.37300512 33.7890625 -0.390625 C34.72054108 -0.41127014 35.65201965 -0.43191528 36.61172485 -0.45318604 C42.38771307 -0.45516803 45.58813215 0.17726979 50 4 C52.89986003 9.79972007 51.28864936 18.92096935 49.68359375 25.03125 C48.3618286 28.83793364 46.80620491 31.93324811 43.25390625 34.03125 C40.83415074 35.11787618 38.67769125 36 36 36 C36.27263672 36.5347998 36.54527344 37.06959961 36.82617188 37.62060547 C38.05493614 40.03665007 39.27753298 42.45576347 40.5 44.875 C40.92925781 45.71675781 41.35851562 46.55851562 41.80078125 47.42578125 C42.20683594 48.23144531 42.61289062 49.03710938 43.03125 49.8671875 C43.59682617 50.98262939 43.59682617 50.98262939 44.17382812 52.12060547 C45 54 45 54 45 56 C40.38 56 35.76 56 31 56 C28 50 25 44 22 38 C19.45058627 37.68758629 16.99638487 37.48696579 14.4375 37.375 C13.72658203 37.33632812 13.01566406 37.29765625 12.28320312 37.2578125 C10.52257575 37.16328217 8.76132272 37.08054183 7 37 C6.93941406 37.78503906 6.87882812 38.57007813 6.81640625 39.37890625 C6.37179786 44.95361148 5.87875357 50.47640616 5 56 C0.38 56 -4.24 56 -9 56 C-8.42932829 46.09426634 -6.97221558 36.58452822 -5.0625 26.875 C-4.79424766 25.4858071 -4.52666713 24.09648431 -4.25976562 22.70703125 C-3.74640299 20.03688114 -3.2298955 17.36741342 -2.71142578 14.69824219 C-1.77019713 9.80540363 -0.87871874 4.9043721 0 0 Z " fill="#F80000" transform="translate(281,62)"/>
<path d="M0 0 C3.96 0 7.92 0 12 0 C13.85615587 4.09128955 15.70743902 8.18473722 17.55419922 12.28027344 C18.1833904 13.6737841 18.8139191 15.06669164 19.44580078 16.45898438 C20.35279374 18.4580709 21.25498538 20.45926313 22.15625 22.4609375 C22.44060913 23.08495453 22.72496826 23.70897156 23.01794434 24.35189819 C25 28.77225659 25 28.77225659 25 31 C28.30081464 28.49047654 30.97419631 26.0335448 33.5 22.75 C37.26075312 17.9353698 41.08220042 13.17648149 44.9375 8.4375 C45.51757812 7.72239258 46.09765625 7.00728516 46.6953125 6.27050781 C47.50935547 5.26842285 47.50935547 5.26842285 48.33984375 4.24609375 C48.82831787 3.64466553 49.31679199 3.0432373 49.82006836 2.42358398 C51 1 51 1 52 0 C54.01964199 -0.07244053 56.04167124 -0.08377188 58.0625 -0.0625 C59.16722656 -0.05347656 60.27195312 -0.04445312 61.41015625 -0.03515625 C62.26480469 -0.02355469 63.11945313 -0.01195312 64 0 C63.39429712 7.08682582 62.39783972 14.03833153 61.15234375 21.0390625 C60.97619034 22.04593109 60.80003693 23.05279968 60.61854553 24.09017944 C60.06159788 27.26906124 59.49963711 30.44703223 58.9375 33.625 C58.55630726 35.7955144 58.17544474 37.96608681 57.79492188 40.13671875 C56.86709535 45.42515723 55.93477545 50.71278556 55 56 C50.71 56 46.42 56 42 56 C42.50259535 47.85795538 43.64870154 40.19735177 45.37890625 32.25 C46.12513921 28.8966527 46.12513921 28.8966527 46 25 C40.74709572 30.79680173 35.70800408 36.73282516 30.78515625 42.8125 C29.89306621 43.90565191 28.99769879 45.00230121 28 46 C25.32941149 46.14115161 22.67567762 46.04247107 20 46 C19.70230713 45.39937744 19.40461426 44.79875488 19.09790039 44.17993164 C17.75483792 41.47308771 16.40871152 38.76777908 15.0625 36.0625 C14.35963867 34.64420898 14.35963867 34.64420898 13.64257812 33.19726562 C13.19462891 32.29814453 12.74667969 31.39902344 12.28515625 30.47265625 C11.87144775 29.64000244 11.45773926 28.80734863 11.03149414 27.94946289 C10.14969058 26.05158863 10.14969058 26.05158863 9 25 C7.02 35.23 5.04 45.46 3 56 C-1.29 56 -5.58 56 -10 56 C-5.21282121 24.54980489 -5.21282121 24.54980489 -2.75 11.6875 C-2.58725586 10.83647705 -2.42451172 9.9854541 -2.25683594 9.10864258 C-1.64747406 5.99940916 -1.00303969 3.00911906 0 0 Z " fill="#F90000" transform="translate(24,62)"/>
<path d="M0 0 C1.29768311 -0.00717545 1.29768311 -0.00717545 2.62158203 -0.01449585 C4.44370348 -0.01788582 6.2658865 -0.00874666 8.08789062 0.01220703 C10.86727287 0.03898804 13.64261744 0.0124312 16.421875 -0.01953125 C18.19792553 -0.01622699 19.97397355 -0.00982041 21.75 0 C22.57516113 -0.01012115 23.40032227 -0.02024231 24.25048828 -0.03067017 C28.39280211 0.05292176 31.09884493 0.41542658 34.40649414 3.02685547 C36.875 5.6640625 36.875 5.6640625 37.49609375 8.5234375 C37.43550781 9.47734375 37.37492187 10.43125 37.3125 11.4140625 C37.26996094 12.37828125 37.22742188 13.3425 37.18359375 14.3359375 C36.875 16.6640625 36.875 16.6640625 35.875 17.6640625 C33.68860547 17.73665196 31.49999611 17.74780033 29.3125 17.7265625 C27.51619141 17.71302734 27.51619141 17.71302734 25.68359375 17.69921875 C24.75675781 17.68761719 23.82992187 17.67601563 22.875 17.6640625 C22.38 15.1890625 22.38 15.1890625 21.875 12.6640625 C13.955 12.6640625 6.035 12.6640625 -2.125 12.6640625 C-3.47939668 15.37285585 -3.19001451 17.67339518 -3.125 20.6640625 C0.39762199 21.43764226 3.80456267 21.86644391 7.40234375 22.09375 C8.44197266 22.16722656 9.48160156 22.24070312 10.55273438 22.31640625 C12.7215052 22.46454278 14.89080018 22.60519997 17.06054688 22.73828125 C27.20592517 23.47955347 27.20592517 23.47955347 31.875 26.6640625 C35.30380265 31.80726647 34.36687886 37.72047497 33.375 43.65625 C32.04412613 49.23684609 30.72735792 53.19809256 25.875 56.6640625 C22.43666333 57.55936545 19.20744154 57.79235291 15.6640625 57.796875 C14.67317627 57.79921143 13.68229004 57.80154785 12.66137695 57.80395508 C7.39876256 57.77916401 2.13717025 57.73776236 -3.125 57.6640625 C-3.95209473 57.65681152 -4.77918945 57.64956055 -5.63134766 57.64208984 C-7.69229875 57.6154882 -9.75261124 57.54787418 -11.8125 57.4765625 C-13.48892578 57.42435547 -13.48892578 57.42435547 -15.19921875 57.37109375 C-19.164041 56.41297248 -20.69940654 54.91007728 -23.125 51.6640625 C-23.77001035 47.55147654 -23.35533034 43.8560747 -23.125 39.6640625 C-18.505 39.6640625 -13.885 39.6640625 -9.125 39.6640625 C-8.795 41.6440625 -8.465 43.6240625 -8.125 45.6640625 C0.125 45.6640625 8.375 45.6640625 16.875 45.6640625 C18.8705516 41.67295931 19.07046065 39.96419684 18.875 35.6640625 C18.09374756 35.58365723 17.31249512 35.50325195 16.50756836 35.42041016 C12.94184099 35.04974583 9.37719819 34.66949207 5.8125 34.2890625 C4.58337891 34.16273437 3.35425781 34.03640625 2.08789062 33.90625 C-13.50051254 32.22555963 -13.50051254 32.22555963 -17.0390625 28.82421875 C-20.19693425 22.542553 -17.9215474 14.70272046 -16.3671875 8.20703125 C-12.77706419 0.85743919 -7.47320096 -0.09166382 0 0 Z " fill="#F80000" transform="translate(357.125,61.3359375)"/>
<path d="M0 0 C0.86802246 0.07001221 1.73604492 0.14002441 2.63037109 0.2121582 C11.96122426 1.1181452 21.72320901 2.96245683 27.95703125 10.46875 C41.0625 27.90929732 41.0625 27.90929732 41.0625 33.1875 C41.619375 33.34605469 42.17625 33.50460938 42.75 33.66796875 C49.490171 35.72873049 56.04174606 38.1563691 60.0625 44.1875 C60.265625 46.203125 60.265625 46.203125 60.3125 48.4375 C60.71222359 53.08334394 62.29859124 55.28207526 65.58984375 58.484375 C68.86530223 62.27243838 69.33032261 66.37449241 69.4765625 71.23828125 C69.53505371 72.98830444 69.53505371 72.98830444 69.59472656 74.77368164 C69.6253418 76.0033667 69.65595703 77.23305176 69.6875 78.5 C69.72327148 79.75353271 69.75904297 81.00706543 69.79589844 82.29858398 C69.86351015 84.79071943 69.92612471 87.28299617 69.98339844 89.77539062 C70.05071286 92.67905228 70.13591577 95.58138479 70.2265625 98.484375 C70.25728635 99.90620662 70.28614598 101.32808068 70.3125 102.75 C70.35117187 104.54630859 70.35117187 104.54630859 70.390625 106.37890625 C70.0625 109.1875 70.0625 109.1875 68.671875 111.02734375 C65.70104946 113.16893401 63.80173283 113.31457731 60.18164062 113.31591797 C58.65355774 113.31798752 58.65355774 113.31798752 57.09460449 113.32009888 C55.42355652 113.31247025 55.42355652 113.31247025 53.71875 113.3046875 C52.55283325 113.30161591 51.3869165 113.29854431 50.18566895 113.29537964 C38.27726839 113.23349124 26.38392355 112.85742468 14.4833374 112.44671631 C-17.02578158 111.36811059 -48.54154576 110.68771172 -80.0625 110.0625 C-81.17960358 110.0402964 -82.29670715 110.0180928 -83.44766235 109.99521637 C-97.27750488 109.72057423 -111.10744453 109.45119586 -124.9375 109.1875 C-124.9375 108.8575 -124.9375 108.5275 -124.9375 108.1875 C-100.6935348 107.31223095 -76.44857802 107.05284348 -52.19140625 106.90625 C-51.02696904 106.89909721 -51.02696904 106.89909721 -49.83900785 106.89179993 C-36.05689881 106.80722167 -22.27473529 106.73308394 -8.49255371 106.66143799 C0.49753525 106.61459191 9.48760095 106.56552883 18.47764069 106.50995111 C23.06525869 106.48183634 27.65287028 106.45817057 32.24052989 106.43802643 C35.07720383 106.42460448 37.91384327 106.40720283 40.75048828 106.38871574 C42.67987965 106.37733087 44.60929736 106.37072005 46.53871155 106.36427307 C52.1458577 106.32386986 57.54113146 106.19789121 63.0625 105.1875 C63.14266494 99.54872106 63.16267276 93.91391242 63.12963867 88.2746582 C63.12657766 86.36120489 63.13926687 84.44765319 63.16870117 82.53442383 C63.58718913 69.10711447 63.58718913 69.10711447 57.52734375 57.640625 C56.70741943 56.86235352 55.88749512 56.08408203 55.04272461 55.28222656 C52.78955825 52.89877602 52.56575378 51.95316636 52.5625 48.75 C52.3975 47.574375 52.2325 46.39875 52.0625 45.1875 C48.75540026 42.84184575 45.03751032 41.51922317 41.04931641 40.84936523 C37.49696538 39.66597575 36.36950955 35.84858995 34.75 32.6875 C28.67531043 21.37583611 22.93044872 12.43879242 10.3515625 8.1328125 C-5.04012747 3.70907263 -20.773463 3.09452542 -36.6875 2.625 C-38.07813389 2.58166442 -39.46875899 2.53804622 -40.859375 2.49414062 C-44.21867477 2.38916251 -47.57803439 2.28700417 -50.9375 2.1875 C-42.5172676 -6.2327324 -11.26777673 -0.96283318 0 0 Z " fill="#EEEEEE" transform="translate(538.9375,9.8125)"/>
<path d="M0 0 C17.49 0 34.98 0 53 0 C52 9 52 9 51 12 C44.4 12 37.8 12 31 12 C31 14.31 31 16.62 31 19 C30.71361382 21.08767345 30.37160803 23.16841737 29.9765625 25.23828125 C29.76 26.38876953 29.5434375 27.53925781 29.3203125 28.72460938 C28.97613281 30.50061523 28.97613281 30.50061523 28.625 32.3125 C28.29242188 34.07110352 28.29242188 34.07110352 27.953125 35.86523438 C26.67739543 42.58532748 25.35238486 49.29495171 24 56 C19.38 56 14.76 56 10 56 C12.01644768 41.17992922 14.82370825 26.61345297 18 12 C11.73 12 5.46 12 -1 12 C-1 4 -1 4 0 0 Z " fill="#F90000" transform="translate(158,62)"/>
<path d="M0 0 C4.56228541 -0.11625936 9.12418928 -0.18727408 13.6875 -0.25 C14.98107422 -0.28351562 16.27464844 -0.31703125 17.60742188 -0.3515625 C18.85458984 -0.36445313 20.10175781 -0.37734375 21.38671875 -0.390625 C22.53358154 -0.41157227 23.68044434 -0.43251953 24.86206055 -0.45410156 C28.66442415 0.09615101 30.28125209 1.34271191 33 4 C36.44210431 10.88420863 32.96179218 21.09616113 31 28 C29.87664221 30.60267668 28.97423145 31.90611816 27 34 C23.49084144 35.29561986 19.96941243 35.11390093 16.265625 35.09765625 C14.97011719 35.09443359 13.67460937 35.09121094 12.33984375 35.08789062 C10.97656183 35.07953598 9.61328058 35.07107104 8.25 35.0625 C6.87109535 35.05748168 5.49218896 35.05291935 4.11328125 35.04882812 C0.74214341 35.03704093 -2.62890628 35.02058635 -6 35 C-5.31058047 30.33625734 -4.61671816 25.67320584 -3.91870117 21.01074219 C-3.68179565 19.42401105 -3.44611259 17.8370969 -3.21166992 16.25 C-2.87478503 13.97086332 -2.53353215 11.69241756 -2.19140625 9.4140625 C-2.08719864 8.70255035 -1.98299103 7.99103821 -1.87562561 7.25796509 C-1.11387171 2.22774341 -1.11387171 2.22774341 0 0 Z " fill="#FAFAFA" transform="translate(232,10)"/>
<path d="M0 0 C4.56228541 -0.11625936 9.12418928 -0.18727408 13.6875 -0.25 C14.98107422 -0.28351562 16.27464844 -0.31703125 17.60742188 -0.3515625 C18.85458984 -0.36445313 20.10175781 -0.37734375 21.38671875 -0.390625 C22.53358154 -0.41157227 23.68044434 -0.43251953 24.86206055 -0.45410156 C28.68283411 0.09881517 30.31842808 1.26633179 33 4 C34.61578491 12.24900716 33.2180127 22.24314848 30 30 C27.67841661 32.74626328 26.43859851 33.8538005 23 35 C20.78910055 35.08358958 18.57573922 35.10731764 16.36328125 35.09765625 C15.06455078 35.09443359 13.76582031 35.09121094 12.42773438 35.08789062 C11.05598892 35.07953531 9.68424413 35.07107037 8.3125 35.0625 C6.92903805 35.05748335 5.54557437 35.05292073 4.16210938 35.04882812 C0.77469605 35.03702529 -2.61263033 35.02056019 -6 35 C-5.51376143 26.70718729 -4.30525579 18.8383766 -2.4375 10.75 C-2.20353516 9.70714844 -1.96957031 8.66429687 -1.72851562 7.58984375 C-1.15947367 5.0581877 -0.58325712 2.52841156 0 0 Z " fill="#FAFAFA" transform="translate(141,10)"/>
<path d="M0 0 C-0.66 2.97 -1.32 5.94 -2 9 C1.36852515 9.0565109 1.36852515 9.0565109 5 8 C6.8544092 5.7768466 7.78559244 3.67169663 9 1 C11.64 1 14.28 1 17 1 C16.34 3.64 15.68 6.28 15 9 C18.33054374 9.13478487 18.33054374 9.13478487 22 8 C23.39900462 6.1496173 23.39900462 6.1496173 24.5 3.9375 C25.66796875 1.74609375 25.66796875 1.74609375 27 0 C30.8125 -0.5 30.8125 -0.5 34 0 C33.5020163 3.73487777 33.12508244 5.81237635 31 9 C29.0509375 9.12375 29.0509375 9.12375 27.0625 9.25 C24.92254595 9.33898627 24.92254595 9.33898627 23 10 C21.31193057 12.28581205 20.8087519 14.21991535 20 17 C22.31 17 24.62 17 27 17 C26.5020163 20.73487777 26.12508244 22.81237635 24 26 C22.72125 26.0825 21.4425 26.165 20.125 26.25 C17.43245694 26.46050791 16.3925797 26.55211211 14.5859375 28.61328125 C13.34451373 30.76771625 13.34451373 30.76771625 12 34 C9.36 34 6.72 34 4 34 C4.52268466 31.23723823 5.10869587 28.6739124 6 26 C3.36 26 0.72 26 -2 26 C-2.309375 26.94875 -2.61875 27.8975 -2.9375 28.875 C-4 32 -4 32 -5 34 C-7.64 34 -10.28 34 -13 34 C-12.125 28.25 -12.125 28.25 -11 26 C-13.64 26 -16.28 26 -19 26 C-19.309375 26.94875 -19.61875 27.8975 -19.9375 28.875 C-21 32 -21 32 -22 34 C-24.64 34 -27.28 34 -30 34 C-29.25 28.25 -29.25 28.25 -27 26 C-25.88625 25.95875 -24.7725 25.9175 -23.625 25.875 C-19.99777546 25.41221084 -19.99777546 25.41221084 -18.65234375 23.16015625 C-17.6586008 21.13349052 -16.77696611 19.11855976 -16 17 C-18.31 17 -20.62 17 -23 17 C-22.125 11.25 -22.125 11.25 -21 9 C-18.03 9 -15.06 9 -12 9 C-11.7525 8.071875 -11.505 7.14375 -11.25 6.1875 C-8.95086449 0.32470445 -6.06591421 -0.41358506 0 0 Z " fill="#F6F6F6" transform="translate(450,10)"/>
<path d="M0 0 C1.13759766 -0.020625 2.27519531 -0.04125 3.44726562 -0.0625 C13.89786311 -0.11130606 13.89786311 -0.11130606 18.8125 3.25 C20.34459716 4.78209716 20.01864547 6.18190053 20.0625 8.3125 C20.00907756 13.88624142 18.8738514 19.1886486 14.8125 23.25 C13.1625 23.25 11.5125 23.25 9.8125 23.25 C11.7925 27.54 13.7725 31.83 15.8125 36.25 C12.8425 36.25 9.8725 36.25 6.8125 36.25 C5.97430842 34.62750059 5.1420884 33.00191503 4.3125 31.375 C3.8484375 30.47007813 3.384375 29.56515625 2.90625 28.6328125 C1.8125 26.25 1.8125 26.25 1.8125 24.25 C-1.4875 24.25 -4.7875 24.25 -8.1875 24.25 C-8.331875 25.85875 -8.47625 27.4675 -8.625 29.125 C-9.0625 34 -9.0625 34 -10.1875 36.25 C-12.8275 36.25 -15.4675 36.25 -18.1875 36.25 C-17.8980783 27.6397044 -16.80288345 19.38802866 -15.1875 10.9375 C-15.00928711 10.00010986 -14.83107422 9.06271973 -14.64746094 8.09692383 C-12.72473522 -1.64698288 -9.54411981 0.04253647 0 0 Z " fill="#F4F4F4" transform="translate(286.1875,8.75)"/>
<path d="M0 0 C1.13759766 -0.020625 2.27519531 -0.04125 3.44726562 -0.0625 C13.83290914 -0.11100271 13.83290914 -0.11100271 18.8125 3.25 C18.8939222 5.47855574 18.95188079 7.70797655 19 9.9375 C19.05220703 11.79955078 19.05220703 11.79955078 19.10546875 13.69921875 C18.78863859 17.5392003 18.36230604 19.36877263 15.8125 22.25 C12.8425 22.745 12.8425 22.745 9.8125 23.25 C11.7925 27.54 13.7725 31.83 15.8125 36.25 C12.8425 36.25 9.8725 36.25 6.8125 36.25 C6.48378906 35.46753906 6.15507813 34.68507812 5.81640625 33.87890625 C3.31653745 27.94505381 3.31653745 27.94505381 -1.58984375 24.296875 C-3.8464893 24.08297495 -5.93295023 24.03456524 -8.1875 24.25 C-8.331875 25.4875 -8.47625 26.725 -8.625 28 C-8.97438502 30.81504499 -9.39129366 33.5201497 -10.1875 36.25 C-12.8275 36.25 -15.4675 36.25 -18.1875 36.25 C-17.8980783 27.6397044 -16.80288345 19.38802866 -15.1875 10.9375 C-15.00928711 10.00010986 -14.83107422 9.06271973 -14.64746094 8.09692383 C-12.72473522 -1.64698288 -9.54411981 0.04253647 0 0 Z " fill="#F5F5F5" transform="translate(73.1875,8.75)"/>
<path d="M0 0 C1.52838501 0.02018188 1.52838501 0.02018188 3.08764648 0.04077148 C4.75150391 0.05140625 4.75150391 0.05140625 6.44897461 0.06225586 C7.60719727 0.09512695 8.76541992 0.12799805 9.95874023 0.16186523 C11.12083008 0.16766602 12.28291992 0.1734668 13.48022461 0.17944336 C22.10170345 0.30482845 22.10170345 0.30482845 24.39624023 2.59936523 C24.75316437 7.92628959 24.0164134 12.94167961 23.08374023 18.16186523 C22.96579102 18.89083008 22.8478418 19.61979492 22.72631836 20.37084961 C21.93399722 24.88504849 20.78453697 28.61477762 18.39624023 32.59936523 C14.52368327 34.53564372 9.71790983 33.78417126 5.45874023 33.78686523 C4.44360352 33.79911133 3.4284668 33.81135742 2.38256836 33.82397461 C1.40868164 33.8259082 0.43479492 33.8278418 -0.56860352 33.82983398 C-1.90846313 33.83599731 -1.90846313 33.83599731 -3.27539062 33.84228516 C-5.60375977 33.59936523 -5.60375977 33.59936523 -8.60375977 31.59936523 C-10.27914364 22.8775139 -8.00942554 10.94892181 -4.40014648 2.92285156 C-2.60375977 0.59936523 -2.60375977 0.59936523 0 0 Z " fill="#181211" transform="translate(231.603759765625,73.400634765625)"/>
<path d="M0 0 C0.98226562 0.00410889 1.96453125 0.00821777 2.9765625 0.01245117 C4.04390625 0.01438477 5.11125 0.01631836 6.2109375 0.01831055 C7.32984375 0.03055664 8.44875 0.04280273 9.6015625 0.05541992 C11.27992187 0.05638672 11.27992187 0.05638672 12.9921875 0.05737305 C21.32099931 0.10263833 21.32099931 0.10263833 23.6015625 1.24291992 C24.09014373 8.408778 23.47943521 14.87604563 21.7265625 21.80541992 C21.55286133 22.49571289 21.37916016 23.18600586 21.20019531 23.8972168 C20.33751577 27.12150154 19.47056652 29.43941389 17.6015625 32.24291992 C13.14410134 33.72874031 8.77024808 33.42729496 4.1015625 33.43041992 C3.13863281 33.44266602 2.17570312 33.45491211 1.18359375 33.4675293 C0.25933594 33.46946289 -0.66492188 33.47139648 -1.6171875 33.47338867 C-2.8846582 33.479552 -2.8846582 33.479552 -4.17773438 33.48583984 C-6.3984375 33.24291992 -6.3984375 33.24291992 -9.3984375 31.24291992 C-9.87069409 25.91316703 -8.98315292 20.84098653 -8.0234375 15.61791992 C-7.89710937 14.88057617 -7.77078125 14.14323242 -7.640625 13.38354492 C-5.33904932 0.54075265 -5.33904932 0.54075265 0 0 Z " fill="#161212" transform="translate(113.3984375,73.757080078125)"/>
<path d="M0 0 C2.61767578 0.27685547 2.61767578 0.27685547 4.5546875 0.6328125 C6.92981615 7.50142779 8.91295902 14.41294523 10.7421875 21.4453125 C11.01482422 22.46818359 11.28746094 23.49105469 11.56835938 24.54492188 C11.82552734 25.52912109 12.08269531 26.51332031 12.34765625 27.52734375 C12.5799292 28.41268799 12.81220215 29.29803223 13.05151367 30.21020508 C13.5546875 32.6328125 13.5546875 32.6328125 13.5546875 36.6328125 C10.5846875 36.6328125 7.6146875 36.6328125 4.5546875 36.6328125 C4.2246875 34.6528125 3.8946875 32.6728125 3.5546875 30.6328125 C-2.3853125 30.6328125 -8.3253125 30.6328125 -14.4453125 30.6328125 C-15.4353125 33.1078125 -15.4353125 33.1078125 -16.4453125 35.6328125 C-17.4453125 36.6328125 -17.4453125 36.6328125 -19.73046875 36.73046875 C-21.10525391 36.71306641 -21.10525391 36.71306641 -22.5078125 36.6953125 C-23.42691406 36.68628906 -24.34601563 36.67726562 -25.29296875 36.66796875 C-26.00324219 36.65636719 -26.71351562 36.64476562 -27.4453125 36.6328125 C-25.30428533 32.73640902 -23.09795172 28.88382808 -20.84960938 25.04882812 C-19.83877024 23.30973493 -18.84170354 21.56261011 -17.85351562 19.81054688 C-16.12888579 16.77022005 -14.35421058 13.76367833 -12.5703125 10.7578125 C-12.01843262 9.76442871 -11.46655273 8.77104492 -10.89794922 7.74755859 C-7.84687976 2.7169419 -6.17388783 0.01522269 0 0 Z " fill="#F5F5F5" transform="translate(117.4453125,8.3671875)"/>
<path d="M0 0 C5.11878403 -0.07534442 10.2372306 -0.12915241 15.35644531 -0.16479492 C17.09022661 -0.1796861 18.82397161 -0.20000587 20.55761719 -0.22631836 C54.00948112 -0.72053767 54.00948112 -0.72053767 65.84375 9.609375 C69.73241843 13.74550414 72.84981675 18.54087523 76 23.25 C76.61597046 24.15383423 76.61597046 24.15383423 77.24438477 25.07592773 C80.09247204 29.48981725 80.09247204 29.48981725 79.6015625 32.19824219 C79.40304687 32.79282227 79.20453125 33.38740234 79 34 C70.20220767 33.46181128 61.42001329 32.79893256 52.63671875 32.0625 C25.07779821 29.77620308 -2.34606442 28.258448 -30 28 C-30 27.67 -30 27.34 -30 27 C-27.47973623 26.68226785 -24.95891737 26.37084332 -22.4375 26.0625 C-21.75236328 25.97548828 -21.06722656 25.88847656 -20.36132812 25.79882812 C-6.49882187 24.12040808 7.36656033 23.76575513 21.3125 23.75 C22.1811972 23.74799591 23.04989441 23.74599182 23.94491577 23.743927 C58.17403917 23.72467972 58.17403917 23.72467972 71 28 C69.43073213 24.61149238 67.74102668 21.30324522 66 18 C65.64679688 17.23945312 65.29359375 16.47890625 64.9296875 15.6953125 C62.6282763 11.65641204 60.70133438 10.24597949 56.2578125 8.6875 C51.87801407 7.55152068 47.46037072 6.74488459 43 6 C42.0836377 5.83282471 41.16727539 5.66564941 40.22314453 5.4934082 C32.87241656 4.18659871 25.56934605 3.45572022 18.125 2.9375 C5.09863344 2.00373794 5.09863344 2.00373794 0 1 C0 0.67 0 0.34 0 0 Z " fill="#ECEDED" transform="translate(495,16)"/>
<path d="M0 0 C1.25159912 0.00523682 2.50319824 0.01047363 3.79272461 0.01586914 C4.78942421 0.01799156 4.78942421 0.01799156 5.80625916 0.02015686 C7.93590735 0.02577021 10.06545175 0.03832485 12.19506836 0.05102539 C13.63582205 0.05603868 15.07657739 0.06060188 16.51733398 0.06469727 C20.05577938 0.07574394 23.59416375 0.09301747 27.13256836 0.11352539 C26.80256836 2.75352539 26.47256836 5.39352539 26.13256836 8.11352539 C18.87256836 8.11352539 11.61256836 8.11352539 4.13256836 8.11352539 C4.13256836 10.42352539 4.13256836 12.73352539 4.13256836 15.11352539 C10.07256836 15.11352539 16.01256836 15.11352539 22.13256836 15.11352539 C22.13256836 17.09352539 22.13256836 19.07352539 22.13256836 21.11352539 C12.23256836 21.60852539 12.23256836 21.60852539 2.13256836 22.11352539 C1.80256836 24.42352539 1.47256836 26.73352539 1.13256836 29.11352539 C8.06256836 29.11352539 14.99256836 29.11352539 22.13256836 29.11352539 C22.13256836 31.42352539 22.13256836 33.73352539 22.13256836 36.11352539 C11.90256836 36.11352539 1.67256836 36.11352539 -8.86743164 36.11352539 C-7.74048055 23.71706337 -7.74048055 23.71706337 -6.92993164 18.82446289 C-6.75719727 17.78161133 -6.58446289 16.73875977 -6.40649414 15.66430664 C-6.22860352 14.61629883 -6.05071289 13.56829102 -5.86743164 12.48852539 C-5.68954102 11.4018457 -5.51165039 10.31516602 -5.32836914 9.19555664 C-5.15563477 8.1655957 -4.98290039 7.13563477 -4.80493164 6.07446289 C-4.5709668 4.6791333 -4.5709668 4.6791333 -4.33227539 3.25561523 C-3.62665687 0.0039887 -3.43575694 0.13602614 0 0 Z " fill="#F5F5F5" transform="translate(184.867431640625,8.886474609375)"/>
<path d="M0 0 C9.9 0 19.8 0 30 0 C29.67 2.64 29.34 5.28 29 8 C21.74 8 14.48 8 7 8 C6.67 10.31 6.34 12.62 6 15 C12.27 15 18.54 15 25 15 C25 16.65 25 18.3 25 20 C24 21 24 21 22.05053711 21.11352539 C21.2178833 21.10828857 20.38522949 21.10305176 19.52734375 21.09765625 C18.62822266 21.09443359 17.72910156 21.09121094 16.80273438 21.08789062 C15.85720703 21.07951172 14.91167969 21.07113281 13.9375 21.0625 C12.98810547 21.05798828 12.03871094 21.05347656 11.06054688 21.04882812 C8.70696935 21.0370011 6.35351523 21.02052025 4 21 C4 23.64 4 26.28 4 29 C10.93 29 17.86 29 25 29 C24.67 31.31 24.34 33.62 24 36 C14.1 36 4.2 36 -6 36 C-5.3696058 27.80487536 -4.69714079 20.30728848 -3 12.375 C-2.82210938 11.50488281 -2.64421875 10.63476562 -2.4609375 9.73828125 C-1.77236621 6.41361242 -1.0748999 3.22469971 0 0 Z " fill="#F5F5F5" transform="translate(369,9)"/>
<path d="M0 0 C2.29040755 -0.00134572 4.32997283 0.18271826 6.56347656 0.67431641 C5.03399355 6.4307343 2.0875282 10.92695733 -1.12402344 15.86181641 C-5.48890223 22.48589053 -5.48890223 22.48589053 -9.43261719 29.36181641 C-12.20407153 34.46607765 -12.20407153 34.46607765 -14.43652344 36.67431641 C-17.94753738 37.54558722 -20.90832251 37.37711699 -24.43652344 36.67431641 C-24.67886719 35.62115234 -24.92121094 34.56798828 -25.17089844 33.48291016 C-27.17949432 24.82008266 -29.31725256 16.2181587 -31.70214844 7.65087891 C-32.43652344 4.67431641 -32.43652344 4.67431641 -32.43652344 1.67431641 C-29.46652344 1.67431641 -26.49652344 1.67431641 -23.43652344 1.67431641 C-22.59766966 5.11049349 -21.76639425 8.54845978 -20.93652344 11.98681641 C-20.69804687 12.96328125 -20.45957031 13.93974609 -20.21386719 14.94580078 C-19.98828125 15.88359375 -19.76269531 16.82138672 -19.53027344 17.78759766 C-19.32080078 18.65167236 -19.11132812 19.51574707 -18.89550781 20.40600586 C-18.43652344 22.67431641 -18.43652344 22.67431641 -18.43652344 25.67431641 C-15.7476998 23.27560007 -14.27374441 20.75281826 -12.61621094 17.56884766 C-12.07996094 16.5859375 -11.54371094 15.60302734 -10.99121094 14.59033203 C-9.87175428 12.5219406 -8.7752531 10.44095908 -7.70214844 8.34814453 C-3.62039594 1.00195727 -3.62039594 1.00195727 0 0 Z " fill="#F6F6F6" transform="translate(358.4365234375,8.32568359375)"/>
<path d="M0 0 C11.22 0 22.44 0 34 0 C33.67 2.64 33.34 5.28 33 8 C28.71 8 24.42 8 20 8 C19.896875 9.27875 19.79375 10.5575 19.6875 11.875 C18.89142439 19.97624001 17.38844187 27.98371295 16 36 C13.03 36 10.06 36 7 36 C6.76658672 29.69784145 7.60522267 24.13513544 9 18 C9.28617188 16.69482422 9.28617188 16.69482422 9.578125 15.36328125 C10.04466097 13.2405426 10.52128463 11.12002519 11 9 C7.04 9 3.08 9 -1 9 C-0.67 6.03 -0.34 3.06 0 0 Z " fill="#EFEFEF" transform="translate(23,9)"/>
<path d="M0 0 C0 3 0 3 -1.35546875 4.53515625 C-1.96003906 5.03917969 -2.56460938 5.54320313 -3.1875 6.0625 C-4.07501953 6.82240234 -4.07501953 6.82240234 -4.98046875 7.59765625 C-9.66477373 10.85039414 -13.98855706 11.2871803 -19.56640625 11.23046875 C-20.70833687 11.23039322 -20.70833687 11.23039322 -21.87333679 11.23031616 C-24.43654333 11.22664434 -26.99937189 11.20746854 -29.5625 11.1875 C-31.40396983 11.1798785 -33.2454413 11.17264684 -35.08691406 11.16577148 C-74.06164857 10.97460436 -113.04279872 10.1663159 -152 9 C-152 8.67 -152 8.34 -152 8 C-146.58361014 7.84268797 -141.16692699 7.69980124 -135.75 7.5625 C-134.86261139 7.5397702 -133.97522278 7.51704041 -133.0609436 7.49362183 C-118.95431664 7.141497 -104.84880556 6.94042774 -90.73871231 6.80774117 C-87.92613111 6.78117952 -85.11356265 6.75351508 -82.30099487 6.72557068 C-73.76903931 6.64148362 -65.23715795 6.56136546 -56.70499325 6.50161934 C-53.0768834 6.47431752 -49.44887376 6.43930017 -45.82084846 6.40255737 C-44.12287161 6.38705422 -42.42486105 6.37482121 -40.72683525 6.36621094 C-26.54011659 6.29217109 -13.27606831 5.58136749 0 0 Z " fill="#F6F6F6" transform="translate(589,101)"/>
<path d="M0 0 C5.61 0 11.22 0 17 0 C16 6 16 6 15 8 C17.31 8 19.62 8 22 8 C21.49487476 14.22987798 18.67395877 19.45474233 16 25 C13.36 25 10.72 25 8 25 C8.875 19.25 8.875 19.25 10 17 C7.36 17 4.72 17 2 17 C1.690625 17.94875 1.38125 18.8975 1.0625 19.875 C0 23 0 23 -1 25 C-3.64 25 -6.28 25 -9 25 C-8.25 19.25 -8.25 19.25 -6 17 C-4.88625 16.95875 -3.7725 16.9175 -2.625 16.875 C1.00222454 16.41221084 1.00222454 16.41221084 2.34765625 14.16015625 C3.3413992 12.13349052 4.22303389 10.11855976 5 8 C2.69 8 0.38 8 -2 8 C-1.125 2.25 -1.125 2.25 0 0 Z " fill="#F0F0F1" transform="translate(429,19)"/>
<path d="M0 0 C3.97915159 -0.02886984 7.95827653 -0.04675406 11.9375 -0.0625 C13.07380859 -0.07087891 14.21011719 -0.07925781 15.38085938 -0.08789062 C16.46044922 -0.09111328 17.54003906 -0.09433594 18.65234375 -0.09765625 C20.15269165 -0.10551147 20.15269165 -0.10551147 21.68334961 -0.11352539 C24 0 24 0 25 1 C25.45030333 6.62879162 24.46407704 10.07184593 22 15 C21 16 21 16 18.77514648 16.11352539 C17.81680908 16.10828857 16.85847168 16.10305176 15.87109375 16.09765625 C14.31938477 16.09282227 14.31938477 16.09282227 12.73632812 16.08789062 C11.64771484 16.07951172 10.55910156 16.07113281 9.4375 16.0625 C7.7987793 16.05573242 7.7987793 16.05573242 6.12695312 16.04882812 C3.41791505 16.03699826 0.70898401 16.02051543 -2 16 C-2.2396943 10.36718401 -1.38529821 5.45461169 0 0 Z " fill="#191312" transform="translate(293,73)"/>
<path d="M0 0 C2.21260253 2.35535108 2.35162071 3.11384644 2.5625 6.25 C2.27067203 11.36115839 0.38552587 15.29946929 -3.0625 19.0625 C-7.48260275 22.61160644 -11.51535788 22.51763018 -16.9375 22.4375 C-17.71480469 22.44910156 -18.49210938 22.46070312 -19.29296875 22.47265625 C-24.60852553 22.44585512 -28.31544275 21.45501685 -33.0625 19.0625 C-33.0625 18.7325 -33.0625 18.4025 -33.0625 18.0625 C-31.91652344 18.09730469 -30.77054688 18.13210937 -29.58984375 18.16796875 C-28.05991061 18.19612703 -26.52996146 18.22342499 -25 18.25 C-23.87174805 18.28770508 -23.87174805 18.28770508 -22.72070312 18.32617188 C-17.39033535 18.39539743 -13.79787059 17.54523906 -9.0625 15.0625 C-6.16978242 12.16978242 -5.20964405 8.9451414 -4.0625 5.0625 C-4.3925 5.3925 -4.7225 5.7225 -5.0625 6.0625 C-6.43593068 6.16860194 -7.81152569 6.24719952 -9.1875 6.3125 C-12.78983795 6.64511023 -14.58074506 7.20150766 -17.25 9.625 C-22.23626799 13.71539005 -28.98730476 12.59675084 -35.0625 12.0625 C-36.0525 11.7325 -37.0425 11.4025 -38.0625 11.0625 C-38.0625 10.4025 -38.0625 9.7425 -38.0625 9.0625 C-37.35867188 8.92714844 -36.65484375 8.79179688 -35.9296875 8.65234375 C-29.69265741 7.29257348 -24.44783002 5.39421757 -18.875 2.375 C-11.92896005 -1.25135419 -7.63696994 -2.33784794 0 0 Z " fill="#EEEEEE" transform="translate(592.0625,63.9375)"/>
<path d="M0 0 C2.4377963 -0.05397335 4.87439685 -0.09365616 7.3125 -0.125 C8.00279297 -0.14175781 8.69308594 -0.15851562 9.40429688 -0.17578125 C13.17135396 -0.21217794 14.78431704 -0.14378864 18 2 C18.5150671 7.97477836 18.17720168 14.47805611 14.9375 19.71875 C11.81017066 21.78682263 8.42570255 21.31056978 4.8125 21.1875 C4.06291016 21.17396484 3.31332031 21.16042969 2.54101562 21.14648438 C0.69370233 21.11118539 -1.15324066 21.05737917 -3 21 C-2.17321655 13.97234063 -1.09751783 6.99001647 0 0 Z " fill="#1B1B1A" transform="translate(239,17)"/>
<path d="M0 0 C5.23861712 3.30260644 8.66302609 6.99151603 10.875 12.8125 C11.48369565 18.79800725 11.48369565 18.79800725 9.75 21.6875 C4.86968549 24.61568871 -1.48501104 23.93575835 -7 23.875 C-7.78375 23.87048828 -8.5675 23.86597656 -9.375 23.86132812 C-11.29170014 23.84964093 -13.20836048 23.83170908 -15.125 23.8125 C-12.54209431 21.22959431 -10.89654092 21.30746003 -7.3125 20.8125 C-3.27947229 20.2513831 0.14631269 19.46663116 3.875 17.8125 C4.37696294 14.52323505 4.37696294 14.52323505 3.875 10.8125 C0.55646804 7.27354304 -1.01721917 5.99471849 -5.84448242 5.20068359 C-7.22299405 5.18002978 -8.60205275 5.18466534 -9.98046875 5.2109375 C-10.72275223 5.20293121 -11.46503571 5.19492493 -12.22981262 5.18667603 C-14.59127076 5.16372594 -16.95099819 5.17299891 -19.3125 5.1875 C-40.48759737 5.22256899 -40.48759737 5.22256899 -48.125 1.8125 C-48.455 1.1525 -48.785 0.4925 -49.125 -0.1875 C-48.08569336 -0.18226318 -47.04638672 -0.17702637 -45.97558594 -0.17163086 C-42.11410384 -0.1535102 -38.25262548 -0.14204214 -34.39111328 -0.13256836 C-32.72085945 -0.12754431 -31.05061001 -0.12072395 -29.38037109 -0.11206055 C-26.97752804 -0.09991054 -24.57474321 -0.09425237 -22.171875 -0.08984375 C-21.0544693 -0.08210182 -21.0544693 -0.08210182 -19.91448975 -0.07420349 C-0.18967485 -0.07207644 -0.18967485 -0.07207644 0 0 Z " fill="#E1E1E1" transform="translate(550.125,82.1875)"/>
<path d="M0 0 C2.62527189 -0.05382106 5.24944713 -0.09358313 7.875 -0.125 C8.62136719 -0.14175781 9.36773437 -0.15851562 10.13671875 -0.17578125 C12.09194461 -0.1933959 14.04742021 -0.10320189 16 0 C18 2 18 2 18.08203125 3.84765625 C17.40470217 9.41353434 16.38688163 14.88362215 14 20 C10.93466836 21.53266582 7.73245728 21.10276471 4.375 21.0625 C3.66859375 21.05798828 2.9621875 21.05347656 2.234375 21.04882812 C0.48954725 21.03703875 -1.255237 21.01910324 -3 21 C-2.48462048 13.86606248 -1.55994099 6.98187183 0 0 Z " fill="#1F1E1B" transform="translate(148,17)"/>
<path d="M0 0 C3.8125 -0.5 3.8125 -0.5 7 0 C6.5020163 3.73487777 6.12508244 5.81237635 4 9 C2.0509375 9.12375 2.0509375 9.12375 0.0625 9.25 C-2.07745405 9.33898627 -2.07745405 9.33898627 -4 10 C-5.68806943 12.28581205 -6.1912481 14.21991535 -7 17 C-4.69 17 -2.38 17 0 17 C-0.4979837 20.73487777 -0.87491756 22.81237635 -3 26 C-8.29218012 27.50897193 -13.67284108 27.02009426 -19 26 C-18.125 19.125 -18.125 19.125 -17 18 C-19.31 17.67 -21.62 17.34 -24 17 C-23.45276317 13.62537285 -22.9451 11.91765 -21 9 C-18.3564372 8.82689211 -15.82779772 8.78174778 -13.1875 8.8125 C-7.66714189 8.85629818 -7.66714189 8.85629818 -3.078125 6.1640625 C-1.91852071 3.96917537 -1.91852071 3.96917537 -1.015625 1.74609375 C-0.51289063 0.88177734 -0.51289063 0.88177734 0 0 Z " fill="#EBECEC" transform="translate(477,10)"/>
<path d="M0 0 C2.97 0 5.94 0 9 0 C8.27641851 12.11998999 5.94347055 24.2261178 3 36 C0.03 36 -2.94 36 -6 36 C-5.08705484 27.32165072 -4.05933179 18.70308636 -2.4375 10.125 C-2.31076904 9.45404297 -2.18403809 8.78308594 -2.0534668 8.09179688 C-1.51197415 5.31535142 -0.89585219 2.68755656 0 0 Z " fill="#F2F2F2" transform="translate(313,9)"/>
<path d="M0 0 C0.83724609 -0.020625 1.67449219 -0.04125 2.53710938 -0.0625 C7.35970255 -0.09304691 10.50784797 0.14248246 14.4375 3.25 C16.4375 5.25 16.4375 5.25 16.75 8.5625 C16.41314616 12.53737532 16.17109419 14.34555617 13.4375 17.25 C10.7637349 18.10226262 8.23775125 18.47018105 5.4375 18.25 C1.57642543 15.67595029 1.49430308 13.63979741 0.4375 9.25 C3.7375 9.58 7.0375 9.91 10.4375 10.25 C10.1075 9.26 9.7775 8.27 9.4375 7.25 C6.79409546 5.92829773 4.94882484 6.29561896 2 6.4375 C-4.52194152 6.52424892 -9.64485249 4.85935638 -15.5625 2.25 C-15.5625 1.92 -15.5625 1.59 -15.5625 1.25 C-10.34933548 0.19889041 -5.29550408 0.03276414 0 0 Z " fill="#F1F2F2" transform="translate(597.5625,39.75)"/>
<path d="M0 0 C2.47923801 -0.02685095 4.9581884 -0.04676547 7.4375 -0.0625 C8.14455078 -0.07087891 8.85160156 -0.07925781 9.58007812 -0.08789062 C11.38693559 -0.09653588 13.19387603 -0.05220011 15 0 C15.33 0.33 15.66 0.66 16 1 C15.9140625 2.8125 15.9140625 2.8125 15.625 5 C15.53476562 5.721875 15.44453125 6.44375 15.3515625 7.1875 C15 9 15 9 14 10 C11.46950598 10.07313567 8.96695163 10.09247527 6.4375 10.0625 C5.37112305 10.05573242 5.37112305 10.05573242 4.28320312 10.04882812 C2.52209987 10.03700864 0.76103964 10.01907263 -1 10 C-1.125 3.375 -1.125 3.375 0 0 Z " fill="#201F1E" transform="translate(281,16)"/>
<path d="M0 0 C2.29160319 -0.02692484 4.58329546 -0.04636124 6.875 -0.0625 C8.15117188 -0.07410156 9.42734375 -0.08570313 10.7421875 -0.09765625 C14 0 14 0 16 1 C15.125 8.875 15.125 8.875 14 10 C11.46950598 10.07313567 8.96695163 10.09247527 6.4375 10.0625 C5.37112305 10.05573242 5.37112305 10.05573242 4.28320312 10.04882812 C2.52209987 10.03700864 0.76103964 10.01907263 -1 10 C-0.67 6.7 -0.34 3.4 0 0 Z " fill="#1F1D1A" transform="translate(68,16)"/>
<path d="M0 0 C31.45044156 2.64406367 31.45044156 2.64406367 40.375 12.7734375 C44.9608309 19.05690772 49.3154522 25.66859536 52 33 C51.34 33 50.68 33 50 33 C48.51953125 30.91015625 48.51953125 30.91015625 46.8125 28.0625 C39.89249995 16.95332637 34.51121116 9.38477766 21.375 6.25 C19.25501005 5.80854931 17.12985555 5.3910901 15 5 C14.1234375 4.82082031 13.246875 4.64164063 12.34375 4.45703125 C7.28755128 3.76593867 2.22135823 3.62892725 -2.875 3.4375 C-3.94492187 3.39431641 -5.01484375 3.35113281 -6.1171875 3.30664062 C-8.74467754 3.20107183 -11.37225422 3.09896209 -14 3 C-14 2.67 -14 2.34 -14 2 C-9.38 1.67 -4.76 1.34 0 1 C0 0.67 0 0.34 0 0 Z " fill="#2A2E34" transform="translate(524,13)"/>
<path d="M0 0 C0 0.33 0 0.66 0 1 C-0.9446814 1.03758423 -0.9446814 1.03758423 -1.90844727 1.07592773 C-4.79329341 1.19278427 -7.67788395 1.31510021 -10.5625 1.4375 C-11.55314453 1.47681641 -12.54378906 1.51613281 -13.56445312 1.55664062 C-15.01948242 1.61948242 -15.01948242 1.61948242 -16.50390625 1.68359375 C-17.38892822 1.72025146 -18.2739502 1.75690918 -19.18579102 1.79467773 C-22.07056789 1.96186681 -22.07056789 1.96186681 -25.171875 2.52734375 C-30.06820918 3.13189113 -34.82204145 3.01613633 -39.74609375 2.87890625 C-40.75720718 2.85529526 -41.76832062 2.83168427 -42.81007385 2.80735779 C-46.01937506 2.73117375 -49.2284069 2.64695615 -52.4375 2.5625 C-54.62173189 2.50923395 -56.80597668 2.45649391 -58.99023438 2.40429688 C-64.32698726 2.27562037 -69.66354226 2.1403587 -75 2 C-75 1.67 -75 1.34 -75 1 C-49.99523508 0.3326383 -25.01443424 -0.17602449 0 0 Z " fill="#BBBBBB" transform="translate(512,108)"/>
<path d="M0 0 C0.92941406 0.0721875 1.85882812 0.144375 2.81640625 0.21875 C4.05261719 0.3115625 5.28882813 0.404375 6.5625 0.5 C7.78066406 0.5928125 8.99882813 0.685625 10.25390625 0.78125 C14.00346022 1.05222861 14.00346022 1.05222861 17.77734375 0.90625 C21 1 21 1 24 3 C24 3.99 24 4.98 24 6 C21.03 6 18.06 6 15 6 C15.33 7.32 15.66 8.64 16 10 C15.34 10 14.68 10 14 10 C12.9790625 8.88625 12.9790625 8.88625 11.9375 7.75 C8.61627269 4.23870246 4.43226653 2.72848738 0 1 C0 0.67 0 0.34 0 0 Z " fill="#2C3036" transform="translate(584,44)"/>
<path d="M0 0 C0.66 0 1.32 0 2 0 C2.33820166 1.5823006 2.67035939 3.16589375 3 4.75 C3.185625 5.63171875 3.37125 6.5134375 3.5625 7.421875 C4 10 4 10 4 14 C0.37 14 -3.26 14 -7 14 C-4.69 9.38 -2.38 4.76 0 0 Z " fill="#23221E" transform="translate(115,18)"/>
<path d="M0 0 C1.093125 0.0825 2.18625 0.165 3.3125 0.25 C2.8145163 3.98487777 2.43758244 6.06237635 0.3125 9.25 C-1.8515625 9.76171875 -1.8515625 9.76171875 -4.3125 9.9375 C-5.12976563 10.00324219 -5.94703125 10.06898437 -6.7890625 10.13671875 C-7.41554688 10.17410156 -8.04203125 10.21148437 -8.6875 10.25 C-5.77476415 0.39150943 -5.77476415 0.39150943 0 0 Z " fill="#F3F3F3" transform="translate(480.6875,9.75)"/>
<path d="M0 0 C2.01822917 0.06510417 4.03645833 0.13020833 6.0546875 0.1953125 C4.1796875 5.9453125 4.1796875 5.9453125 3.0546875 8.1953125 C0.4146875 8.1953125 -2.2253125 8.1953125 -4.9453125 8.1953125 C-3.92779658 0.39435709 -3.92779658 0.39435709 0 0 Z " fill="#F7F7F7" transform="translate(424.9453125,35.8046875)"/>
<path d="M0 0 C1.9453125 -0.29296875 1.9453125 -0.29296875 4.125 -0.1875 C5.40375 -0.125625 6.6825 -0.06375 8 0 C6.125 6.875 6.125 6.875 5 8 C2.32941149 8.14115161 -0.32432238 8.04247107 -3 8 C-2.45276317 4.62537285 -1.9451 2.91765 0 0 Z " fill="#252931" transform="translate(443,28)"/>
<path d="M0 0 C2.01822917 0.06510417 4.03645833 0.13020833 6.0546875 0.1953125 C4.1796875 5.9453125 4.1796875 5.9453125 3.0546875 8.1953125 C0.4146875 8.1953125 -2.2253125 8.1953125 -4.9453125 8.1953125 C-3.92779658 0.39435709 -3.92779658 0.39435709 0 0 Z " fill="#F8F8F9" transform="translate(441.9453125,35.8046875)"/>
<path d="M0 0 C1.9453125 -0.29296875 1.9453125 -0.29296875 4.125 -0.1875 C5.40375 -0.125625 6.6825 -0.06375 8 0 C7.39958891 3.36230209 6.52322276 5.64499209 4 8 C0.3125 8.25 0.3125 8.25 -3 8 C-2.45276317 4.62537285 -1.9451 2.91765 0 0 Z " fill="#24282F" transform="translate(456,19)"/>
<path d="M0 0 C2.64 0 5.28 0 8 0 C7.25 5.75 7.25 5.75 5 8 C1.375 8.125 1.375 8.125 -2 8 C-1.125 2.25 -1.125 2.25 0 0 Z " fill="#22262E" transform="translate(438,19)"/>
<path d="M0 0 C2.05078125 0.03255208 4.1015625 0.06510417 6.15234375 0.09765625 C5.27734375 4.84765625 5.27734375 4.84765625 4.15234375 7.09765625 C1.51234375 7.09765625 -1.12765625 7.09765625 -3.84765625 7.09765625 C-2.81269978 0.14866278 -2.81269978 0.14866278 0 0 Z " fill="#1C2028" transform="translate(461.84765625,27.90234375)"/>
<path d="M0 0 C0 0.99 0 1.98 0 3 C-7.59 3 -15.18 3 -23 3 C-18.13568344 -1.86431656 -6.60636585 -0.1101061 0 0 Z " fill="#BFC0C2" transform="translate(511,9)"/>
<path d="M0 0 C3.98299713 1.32766571 5.03302673 3.80855554 7.0625 7.25 C7.41376953 7.82363281 7.76503906 8.39726563 8.12695312 8.98828125 C10.08085222 12.23123664 11.70888492 15.44107137 13 19 C12.34 19 11.68 19 11 19 C9.4140625 16.8046875 9.4140625 16.8046875 7.625 13.875 C5.65838921 10.68490274 3.70292221 7.51387743 1.5625 4.4375 C0 2 0 2 0 0 Z " fill="#353A41" transform="translate(563,27)"/>
<path d="M0 0 C1.4540625 0.0309375 1.4540625 0.0309375 2.9375 0.0625 C2.625 2.4375 2.625 2.4375 1.9375 5.0625 C-1.0625 7.0625 -1.0625 7.0625 -5.0625 7.0625 C-4.02286585 0.0820993 -4.02286585 0.0820993 0 0 Z " fill="#E9E9E9" transform="translate(417.0625,27.9375)"/>
<path d="M0 0 C5.97031739 0.29123499 8.894534 3.02814384 13 7 C12.34 7.66 11.68 8.32 11 9 C10.113125 8.236875 9.22625 7.47375 8.3125 6.6875 C5.68601772 4.48524764 2.95645515 2.73909127 0 1 C0 0.67 0 0.34 0 0 Z " fill="#22262D" transform="translate(551,19)"/>
<path d="M0 0 C1.98 0 3.96 0 6 0 C5.125 3.875 5.125 3.875 4 5 C2.33382885 5.04063832 0.66611905 5.042721 -1 5 C-0.67 3.35 -0.34 1.7 0 0 Z " fill="#EFEFEF" transform="translate(420,12)"/>
<path d="M0 0 C0.79921875 0.20367188 1.5984375 0.40734375 2.421875 0.6171875 C3.02515625 0.78476562 3.6284375 0.95234375 4.25 1.125 C3.92 1.785 3.59 2.445 3.25 3.125 C-2.69 2.135 -2.69 2.135 -8.75 1.125 C-4.56924919 -0.9653754 -4.16186737 -1.10167078 0 0 Z " fill="#4E5056" transform="translate(547.75,16.875)"/>
</svg>
